<svg xmlns="http://www.w3.org/2000/svg" width="779" height="1024" viewBox="0 0 779 1024"><rect width="100%" height="100%" fill="#DDDDDD"/><path fill="#999999" d="M200.58 481.095h11.74v62.9h-11.74v-27.49h-29.54v27.49H159.3v-62.9h11.74v27.06h29.54v-27.06Zm32.54 35.45h20.27q0-2.09-.59-3.94-.59-1.84-1.76-3.24-1.18-1.39-2.98-2.19-1.81-.81-4.2-.81-4.65 0-7.33 2.66-2.67 2.65-3.41 7.52Zm27.4 6.48H232.9q.26 3.44 1.22 5.94.95 2.5 2.52 4.13t3.72 2.44q2.15.8 4.76.8t4.5-.61q1.9-.6 3.31-1.34 1.41-.74 2.48-1.35 1.07-.61 2.07-.61 1.34 0 2 1l3.09 3.91q-1.79 2.09-4.01 3.51-2.22 1.41-4.63 2.26-2.41.85-4.92 1.19-2.5.35-4.85.35-4.65 0-8.65-1.54-4-1.55-6.96-4.57-2.96-3.02-4.66-7.48-1.69-4.46-1.69-10.33 0-4.57 1.48-8.59 1.48-4.03 4.24-7.01 2.76-2.98 6.74-4.72 3.98-1.74 8.98-1.74 4.22 0 7.79 1.35 3.57 1.35 6.13 3.94 2.57 2.59 4.03 6.35 1.45 3.76 1.45 8.59 0 2.44-.52 3.28-.52.85-2 .85Zm10.7-43.67h10.75v64.64h-10.75v-64.64Zm21.62 0h10.75v64.64h-10.75v-64.64Zm41.24 19.31q4.96 0 9.03 1.61 4.06 1.61 6.96 4.57 2.89 2.96 4.45 7.22 1.57 4.26 1.57 9.53 0 5.3-1.57 9.57-1.56 4.26-4.45 7.26-2.9 3-6.96 4.61-4.07 1.61-9.03 1.61-5 0-9.09-1.61t-6.98-4.61q-2.9-3-4.48-7.26-1.59-4.27-1.59-9.57 0-5.27 1.59-9.53 1.58-4.26 4.48-7.22 2.89-2.96 6.98-4.57 4.09-1.61 9.09-1.61Zm0 37.72q5.57 0 8.24-3.74 2.68-3.74 2.68-10.97 0-7.22-2.68-11-2.67-3.79-8.24-3.79-5.66 0-8.37 3.81-2.72 3.81-2.72 10.98 0 7.18 2.72 10.94 2.71 3.77 8.37 3.77Zm127.58-55.29h9.18l-19.53 62.9h-10.57L427 501.015q-.57-1.56-1.05-3.83-.26 1.09-.52 2.05-.26.96-.57 1.78l-13.87 42.98h-10.62l-19.48-62.9h9.78q1.53 0 2.55.72 1.02.71 1.37 1.93l10.7 37.63q.35 1.39.67 3.02.33 1.63.68 3.42.35-1.83.76-3.44.41-1.61.89-3l12.35-37.63q.35-1 1.37-1.82 1.03-.83 2.51-.83h3.43q1.52 0 2.48.74t1.44 1.91l12.31 37.63q.91 2.7 1.65 6.22.57-3.44 1.26-6.22l10.7-37.63q.26-1.09 1.33-1.87t2.54-.78Zm34.98 17.57q4.96 0 9.03 1.61 4.06 1.61 6.95 4.57 2.9 2.96 4.46 7.22 1.57 4.26 1.57 9.53 0 5.3-1.57 9.57-1.56 4.26-4.46 7.26-2.89 3-6.95 4.61-4.07 1.61-9.03 1.61-5 0-9.09-1.61t-6.98-4.61q-2.9-3-4.48-7.26-1.59-4.27-1.59-9.57 0-5.27 1.59-9.53 1.58-4.26 4.48-7.22 2.89-2.96 6.98-4.57 4.09-1.61 9.09-1.61Zm0 37.72q5.57 0 8.24-3.74 2.68-3.74 2.68-10.97 0-7.22-2.68-11-2.67-3.79-8.24-3.79-5.66 0-8.38 3.81-2.71 3.81-2.71 10.98 0 7.18 2.71 10.94 2.72 3.77 8.38 3.77Zm39.71-34.32.66 5.04q2.08-4 4.96-6.28 2.87-2.29 6.78-2.29 3.09 0 4.96 1.35l-.7 8.05q-.21.78-.63 1.11-.41.32-1.11.32-.65 0-1.93-.21-1.28-.22-2.5-.22-1.79 0-3.18.52-1.39.52-2.5 1.5t-1.96 2.37q-.84 1.39-1.58 3.18v27.49h-10.75v-44.63h6.31q1.65 0 2.3.59.66.58.87 2.11Zm23.1-22.71h10.75v64.64h-10.75v-64.64Zm49.51 51.42v-20.01q-1.83-2.22-3.98-3.14-2.16-.91-4.64-.91-2.43 0-4.39.91-1.96.92-3.35 2.77-1.39 1.84-2.13 4.69-.74 2.85-.74 6.72 0 3.92.63 6.64.63 2.72 1.8 4.44 1.18 1.71 2.88 2.48 1.69.76 3.78.76 3.35 0 5.7-1.4 2.35-1.39 4.44-3.95Zm0-51.42h10.74v64.64h-6.57q-2.13 0-2.7-1.96l-.91-4.3q-2.7 3.08-6.2 5-3.5 1.91-8.15 1.91-3.66 0-6.7-1.52-3.05-1.52-5.24-4.42-2.2-2.89-3.4-7.15-1.19-4.26-1.19-9.75 0-4.95 1.34-9.22 1.35-4.26 3.88-7.39 2.52-3.13 6.04-4.9 3.53-1.76 7.92-1.76 3.74 0 6.39 1.18 2.66 1.17 4.75 3.17v-23.53Z"/></svg>